{
	"asset":{
		"version":"2.0",
		"generator":"Created using the official Cinema 4D glTF Exporter 1.000x284978"
	},
	"scenes":[{
		"nodes":[0,
		1]
	}],
	"nodes":[{
		"name":"Bud",
		"translation":[0.0,
		12.091038703918457,
		12.900290489196778],
		"rotation":[-0.11224448680877686,
		-0.09156796336174011,
		-0.02360936999320984,
		0.9891709089279175],
		"scale":[1.0,
		1.0,
		1.0],
		"children":[2]
	},
	{
		"name":"Cameras",
		"children":[3]
	},
	{
		"name":"Bud",
		"mesh":0
	},
	{
		"name":"Other Camera.2",
		"camera":0,
		"translation":[0.9351933598518372,
		42.67158889770508,
		475.8304748535156],
		"rotation":[4.440892098500626e-16,
		-4.440892098500626e-16,
		-1.9721522630525297e-31,
		-1.0],
		"scale":[1.0,
		1.0,
		1.0]
	}],
	"meshes":[{
		"name":"Bud",
		"primitives":[{
			"attributes":{
				"POSITION":1,
				"NORMAL":2,
				"TEXCOORD_0":3
			},
			"indices":0,
			"material":0
		}]
	}],
	"cameras":[{
		"type":"perspective",
		"perspective":{
			"znear":0.009999999776482582,
			"zfar":10000000000.0,
			"aspectRatio":1.0,
			"yfov":0.25782153010368349
		}
	}],
	"accessors":[{
		"bufferView":0,
		"type":"SCALAR",
		"min":[0],
		"componentType":5123,
		"count":276,
		"byteOffset":0,
		"max":[115]
	},
	{
		"bufferView":1,
		"type":"VEC3",
		"min":[-52.57802963256836,
		18.498615264892579,
		-16.25],
		"componentType":5126,
		"count":116,
		"byteOffset":0,
		"max":[52.57802963256836,
		53.60254669189453,
		1.25]
	},
	{
		"bufferView":1,
		"type":"VEC3",
		"min":[-0.842434287071228,
		-0.9864909648895264,
		-1.0],
		"componentType":5126,
		"count":116,
		"byteOffset":12,
		"max":[0.8256153464317322,
		0.9822583794593811,
		1.0]
	},
	{
		"bufferView":1,
		"type":"VEC2",
		"min":[0.0,
		0.0],
		"componentType":5126,
		"count":116,
		"byteOffset":24,
		"max":[1.0,
		1.0]
	}],
	"bufferViews":[{
		"target":34963,
		"buffer":0,
		"byteOffset":0,
		"byteLength":552
	},
	{
		"target":34962,
		"buffer":0,
		"byteOffset":552,
		"byteLength":3712,
		"byteStride":32
	}],
	"buffers":[{
		"uri":"data:application/octet-stream;base64,",
		"byteLength":4264
	}],
	"materials":[{
		"pbrMetallicRoughness":{
			"baseColorFactor":[0.9999999999999999,
			0.0,
			0.0,
			1.0],
			"metallicFactor":1.0,
			"roughnessFactor":1.0
		},
		"emissiveFactor":[0.0,
		0.0,
		0.0],
		"alphaMode":"OPAQUE",
		"doubleSided":false,
		"name":"bud"
	}]
}