{
	"asset":{
		"version":"2.0",
		"generator":"Created using the official Cinema 4D glTF Exporter 1.000x284978"
	},
	"scenes":[{
		"nodes":[0,
		1]
	}],
	"cameras":[{
		"perspective":{
			"znear":0.009999999776482582,
			"zfar":10000000000.0,
			"aspectRatio":1.0,
			"yfov":0.25782153010368349
		},
		"type":"perspective"
	}],
	"nodes":[{
		"name":"Adidas",
		"translation":[7.790088653564453,
		32.802528381347659,
		36.07024002075195],
		"rotation":[0.0975915789604187,
		0.1296791434288025,
		-0.0221856739372015,
		-0.9864922761917114],
		"scale":[1.0,
		1.0,
		1.0],
		"children":[2]
	},
	{
		"name":"Cameras",
		"children":[3]
	},
	{
		"name":"Adidas",
		"mesh":0
	},
	{
		"name":"Other Camera.2",
		"camera":0,
		"translation":[0.9351933598518372,
		42.67158889770508,
		475.8304748535156],
		"rotation":[4.440892098500626e-16,
		-4.440892098500626e-16,
		-1.9721522630525297e-31,
		-1.0],
		"scale":[1.0,
		1.0,
		1.0]
	}],
	"meshes":[{
		"name":"Adidas",
		"primitives":[{
			"attributes":{
				"POSITION":1,
				"NORMAL":2,
				"TEXCOORD_0":3
			},
			"indices":0,
			"material":0
		}]
	}],
	"accessors":[{
		"bufferView":0,
		"type":"SCALAR",
		"componentType":5123,
		"count":23133,
		"byteOffset":0,
		"min":[0],
		"max":[7046]
	},
	{
		"bufferView":1,
		"type":"VEC3",
		"componentType":5126,
		"count":7047,
		"byteOffset":0,
		"min":[-40.240692138671878,
		-21.299915313720704,
		12.059919357299805],
		"max":[40.2726936340332,
		34.53228759765625,
		32.55991744995117]
	},
	{
		"bufferView":1,
		"type":"VEC3",
		"componentType":5126,
		"count":7047,
		"byteOffset":12,
		"min":[-0.9999991655349731,
		-1.0,
		-1.0],
		"max":[0.999996542930603,
		1.0,
		1.0]
	},
	{
		"bufferView":1,
		"type":"VEC2",
		"componentType":5126,
		"count":7047,
		"byteOffset":24,
		"min":[0.0,
		0.0],
		"max":[1.0,
		1.0]
	}],
	"bufferViews":[{
		"target":34963,
		"buffer":0,
		"byteOffset":0,
		"byteLength":46266
	},
	{
		"target":34962,
		"buffer":0,
		"byteOffset":46268,
		"byteLength":225504,
		"byteStride":32
	}],
	"buffers":[{
		"uri":"data:application/octet-stream;base64,",
		"byteLength":271772
	}],
	"materials":[{
		"pbrMetallicRoughness":{
			"baseColorFactor":[0.0,
			0.5992285246817573,
			0.8700341750296966,
			1.0],
			"metallicFactor":1.0,
			"roughnessFactor":1.0
		},
		"emissiveFactor":[0.0,
		0.0,
		0.0],
		"alphaMode":"OPAQUE",
		"doubleSided":false,
		"name":"Adidas 3"
	}]
}